# xmcd
#
# Track frame offsets:
#  150
#  21393
#  47003
#  71304
#  90538
#  109283
#  132189
#  150831
#  172830
#  192974
#  209619
#  230024
#  257496
#  273910
#  293096
#  310925
#  329032
#
# Disc length: 4762 seconds
#
# Revision: 0
# Processed by: cddbd v1.5.2PL0 Copyright (c) Steve Scherf et al.
# Submitted via: Collectorz.com_Music_Collector 6.11
#
DISCID=ee129811
DTITLE=Billy Joel - Greatest Hits  Vol.3
DYEAR=1900
DGENRE=Blues
TTITLE0=Keeping the Faith
TTITLE1=Piano Man
TTITLE2=An Innocent Man
TTITLE3=A Matter of Trust
TTITLE4=Baby Grand
TTITLE5=This Is the Time
TTITLE6=Leningrad
TTITLE7=We Didn't Start the Fire
TTITLE8=I Go to Extremes
TTITLE9=And So It Goes
TTITLE10=Shameless
TTITLE11=All About Soul [Remix]
TTITLE12=Lullabye (Goodnight, My Angel)
TTITLE13=The River of Dreams
TTITLE14=To Make You Feel My Love
TTITLE15=Hey Girl
TTITLE16=Light as the Breeze
EXTD=
EXTT0=
EXTT1=
EXTT2=
EXTT3=
EXTT4=
EXTT5=
EXTT6=
EXTT7=
EXTT8=
EXTT9=
EXTT10=
EXTT11=
EXTT12=
EXTT13=
EXTT14=
EXTT15=
EXTT16=
PLAYORDER=
